<svg width="149" height="64" viewBox="0 0 149 64" fill="none" xmlns="http://www.w3.org/2000/svg">
<path d="M43.3899 58.7402C39.8109 58.7402 36.1619 58.5295 32.8964 57.0406C24.7751 53.3375 19.8901 45.7324 19.8901 37.1674C19.8901 26.9318 28.0009 18.6361 38.0058 18.6361C44.0304 18.6361 49.366 21.6465 52.659 26.2742H58.5436C54.6912 18.6871 46.9405 13.5049 38.0058 13.5049C25.2309 13.5049 14.8743 24.0992 14.8743 37.1674C14.8743 48.884 20.9053 58.6119 33.4164 62.6909C36.4143 63.6682 39.5905 63.8714 42.739 63.8714H64.7769V58.7402H43.3899Z" fill="#F55B1F"/>
<path d="M37 38H29V30H37V38Z" fill="#121315"/>
<path d="M47 38H39V30H47V38Z" fill="#F55B1F"/>
<path d="M37 49H29V40H37V49Z" fill="#F55B1F"/>
<path d="M47 49H39V40H47V49Z" fill="#121315"/>
<path d="M0 37.0084L34.8477 0V7.78309L7.22777 37.0084H0Z" fill="#F55B1F"/>
<path d="M60.3059 26.2738L34.8477 0V7.78309L53.0781 26.2738H60.3059Z" fill="#F55B1F"/>
<path d="M30.8571 7.09668H37.8406L41.8311 12.6727V18.2488H25.8689V12.6727L30.8571 7.09668Z" fill="#F55B1F"/>
<path d="M54.96 53L61.62 42.35L54.84 32H60.06L64.53 38.81L68.52 32H73.62L66.99 42.56L73.83 53H68.61L64.11 46.07L60.06 53H54.96Z" fill="#121315"/>
<path d="M85.8436 53.36C85.1036 53.36 84.4336 53.27 83.8336 53.09C83.2536 52.91 82.7336 52.66 82.2736 52.34C81.8336 52 81.4536 51.62 81.1336 51.2L80.6236 53H76.6336V31.4H81.1336V39.86C81.6136 39.18 82.2336 38.62 82.9936 38.18C83.7536 37.74 84.6936 37.52 85.8136 37.52C87.1936 37.52 88.4236 37.87 89.5036 38.57C90.6036 39.25 91.4736 40.19 92.1136 41.39C92.7536 42.57 93.0736 43.93 93.0736 45.47C93.0736 46.97 92.7536 48.32 92.1136 49.52C91.4736 50.72 90.6136 51.66 89.5336 52.34C88.4536 53.02 87.2236 53.36 85.8436 53.36ZM84.7336 49.43C85.4536 49.43 86.0936 49.26 86.6536 48.92C87.2336 48.58 87.6836 48.12 88.0036 47.54C88.3236 46.94 88.4836 46.25 88.4836 45.47C88.4836 44.69 88.3236 44 88.0036 43.4C87.6836 42.78 87.2336 42.3 86.6536 41.96C86.0936 41.62 85.4536 41.45 84.7336 41.45C83.9936 41.45 83.3336 41.63 82.7536 41.99C82.1936 42.33 81.7536 42.8 81.4336 43.4C81.1136 43.98 80.9536 44.67 80.9536 45.47C80.9536 46.23 81.1136 46.92 81.4336 47.54C81.7536 48.14 82.1936 48.61 82.7536 48.95C83.3336 49.27 83.9936 49.43 84.7336 49.43Z" fill="#121315"/>
<path d="M102.226 53.36C100.966 53.36 99.8961 53.1 99.0161 52.58C98.1561 52.06 97.4961 51.3 97.0361 50.3C96.5961 49.28 96.3761 48.04 96.3761 46.58V37.88H100.876V46.13C100.876 47.25 101.106 48.11 101.566 48.71C102.026 49.29 102.766 49.58 103.786 49.58C104.406 49.58 104.956 49.44 105.436 49.16C105.936 48.88 106.316 48.47 106.576 47.93C106.856 47.39 106.996 46.73 106.996 45.95V37.88H111.496V53H107.566L107.206 50.6C106.766 51.42 106.126 52.09 105.286 52.61C104.446 53.11 103.426 53.36 102.226 53.36Z" fill="#121315"/>
<path d="M115.453 53V37.88H119.953V53H115.453ZM117.703 36.14C116.903 36.14 116.253 35.91 115.753 35.45C115.253 34.99 115.003 34.41 115.003 33.71C115.003 32.99 115.253 32.4 115.753 31.94C116.253 31.48 116.903 31.25 117.703 31.25C118.523 31.25 119.183 31.48 119.683 31.94C120.203 32.4 120.463 32.99 120.463 33.71C120.463 34.41 120.203 34.99 119.683 35.45C119.183 35.91 118.523 36.14 117.703 36.14Z" fill="#121315"/>
<path d="M123.919 53V31.4H128.419V53H123.919Z" fill="#121315"/>
<path d="M139.047 53.36C137.707 53.36 136.487 53.02 135.387 52.34C134.307 51.66 133.447 50.73 132.807 49.55C132.187 48.35 131.877 46.99 131.877 45.47C131.877 43.93 132.197 42.57 132.837 41.39C133.477 40.19 134.347 39.25 135.447 38.57C136.567 37.87 137.807 37.52 139.167 37.52C140.207 37.52 141.117 37.71 141.897 38.09C142.677 38.45 143.317 38.98 143.817 39.68V31.4H148.317V53H144.327L143.817 51.05C143.517 51.47 143.147 51.86 142.707 52.22C142.287 52.56 141.777 52.83 141.177 53.03C140.577 53.25 139.867 53.36 139.047 53.36ZM140.217 49.43C140.957 49.43 141.607 49.26 142.167 48.92C142.747 48.58 143.187 48.11 143.487 47.51C143.807 46.91 143.967 46.22 143.967 45.44C143.967 44.66 143.807 43.97 143.487 43.37C143.187 42.77 142.747 42.3 142.167 41.96C141.607 41.62 140.957 41.45 140.217 41.45C139.497 41.45 138.847 41.62 138.267 41.96C137.707 42.3 137.267 42.77 136.947 43.37C136.627 43.97 136.467 44.65 136.467 45.41C136.467 46.19 136.627 46.89 136.947 47.51C137.267 48.11 137.707 48.58 138.267 48.92C138.847 49.26 139.497 49.43 140.217 49.43Z" fill="#121315"/>
</svg>
