<svg width="32" height="32" viewBox="0 0 32 32" fill="none" xmlns="http://www.w3.org/2000/svg">
<path d="M29.25 0.5H2.75C1.5095 0.5 0.5 1.50925 0.5 2.75V12.25C0.5 13.4908 1.5095 14.5 2.75 14.5H19C19.1326 14.5 19.2598 14.4473 19.3536 14.3536C19.4473 14.2598 19.5 14.1326 19.5 14C19.5 13.8674 19.4473 13.7402 19.3536 13.6464C19.2598 13.5527 19.1326 13.5 19 13.5H5.25V10.5C5.25 9.9485 5.6985 9.5 6.25 9.5H18.75C18.8826 9.5 19.0098 9.44732 19.1036 9.35355C19.1973 9.25979 19.25 9.13261 19.25 9C19.25 8.86739 19.1973 8.74021 19.1036 8.64645C19.0098 8.55268 18.8826 8.5 18.75 8.5H6.25C5.14725 8.5 4.25 9.39725 4.25 10.5V13.5H2.75C2.06075 13.5 1.5 12.9392 1.5 12.25V2.75C1.5 2.06075 2.06075 1.5 2.75 1.5H29.25C29.9393 1.5 30.5 2.06075 30.5 2.75V6.5C30.5 6.63261 30.5527 6.75979 30.6465 6.85355C30.7402 6.94732 30.8674 7 31 7C31.1326 7 31.2598 6.94732 31.3536 6.85355C31.4473 6.75979 31.5 6.63261 31.5 6.5V2.75C31.5 1.50925 30.4905 0.5 29.25 0.5Z" fill="#F35D22"/>
<path d="M6.75 11C6.61739 11 6.49021 11.0527 6.39645 11.1464C6.30268 11.2402 6.25 11.3674 6.25 11.5C6.25 11.6326 6.30268 11.7598 6.39645 11.8536C6.49021 11.9473 6.61739 12 6.75 12H18.5C18.6326 12 18.7598 11.9473 18.8536 11.8536C18.9473 11.7598 19 11.6326 19 11.5C19 11.3674 18.9473 11.2402 18.8536 11.1464C18.7598 11.0527 18.6326 11 18.5 11H6.75ZM5.25 2.5C4.6985 2.5 4.25 2.9485 4.25 3.5V4.75C4.25 5.3015 4.6985 5.75 5.25 5.75H9.75C10.3015 5.75 10.75 5.3015 10.75 4.75V3.5C10.75 2.9485 10.3015 2.5 9.75 2.5H5.25ZM5.25 4.75V3.5H9.75L9.7505 4.75H5.25ZM27.75 4C27.75 3.5865 27.4135 3.25 27 3.25C26.5865 3.25 26.25 3.5865 26.25 4C26.25 4.4135 26.5865 4.75 27 4.75C27.4135 4.75 27.75 4.4135 27.75 4ZM24.5 4.75C24.9135 4.75 25.25 4.4135 25.25 4C25.25 3.5865 24.9135 3.25 24.5 3.25C24.0865 3.25 23.75 3.5865 23.75 4C23.75 4.4135 24.0865 4.75 24.5 4.75ZM22.75 4C22.75 3.5865 22.4135 3.25 22 3.25C21.5865 3.25 21.25 3.5865 21.25 4C21.25 4.4135 21.5865 4.75 22 4.75C22.4135 4.75 22.75 4.4135 22.75 4Z" fill="#F35D22"/>
<path d="M31.5 11.25C31.5 8.91305 30.103 6.82655 27.9408 5.93455C27.8648 5.9032 27.7823 5.89106 27.7005 5.89919C27.6187 5.90733 27.5402 5.93549 27.4719 5.9812C27.4036 6.0269 27.3476 6.08873 27.3089 6.16122C27.2702 6.23371 27.25 6.31462 27.25 6.3968V11H24.25V6.39655C24.25 6.31437 24.2298 6.23346 24.1911 6.16097C24.1524 6.08848 24.0964 6.02665 24.0281 5.98095C23.9598 5.93524 23.8813 5.90708 23.7995 5.89894C23.7177 5.89081 23.6352 5.90295 23.5592 5.9343C22.5049 6.36636 21.6032 7.10279 20.9693 8.04959C20.3353 8.99639 19.9979 10.1106 20 11.25C19.9978 12.3318 20.3019 13.392 20.877 14.3082C21.4522 15.2244 22.2749 15.9591 23.25 16.4273V17.75H19.9245C19.407 17.7487 18.8943 17.8499 18.4162 18.048C17.9381 18.246 17.504 18.5369 17.139 18.9038C16.9537 19.0901 16.7333 19.2377 16.4905 19.3383C16.2478 19.4388 15.9875 19.4902 15.7248 19.4895H14.5V18.75C14.5 18.1985 14.0515 17.75 13.5 17.75H1C0.867392 17.75 0.740215 17.8027 0.646447 17.8965C0.552679 17.9903 0.5 18.1174 0.5 18.25C0.5 18.3827 0.552679 18.5098 0.646447 18.6036C0.740215 18.6974 0.867392 18.75 1 18.75H13.5V27.75H1C0.867392 27.75 0.740215 27.8027 0.646447 27.8965C0.552679 27.9903 0.5 28.1174 0.5 28.25C0.5 28.3827 0.552679 28.5098 0.646447 28.6036C0.740215 28.6974 0.867392 28.75 1 28.75H13.5C14.0515 28.75 14.5 28.3015 14.5 27.75V27H15.7145C16.2488 27 16.751 27.208 17.1392 27.5963C17.5042 27.9632 17.9382 28.2541 18.4163 28.4522C18.8944 28.6502 19.407 28.7514 19.9245 28.75H23.25V28.9315C23.25 30.284 24.2755 31.41 25.5845 31.4945C25.6407 31.4983 25.6968 31.5 25.7525 31.5C26.39 31.5 26.9907 31.2633 27.4595 30.8241C27.7086 30.5898 27.9071 30.3072 28.0431 29.9935C28.179 29.6798 28.2494 29.3417 28.25 28.9998V28.7498H28.75C29.5772 28.7498 30.25 28.077 30.25 27.2498V20.75C30.25 20.0893 29.8202 19.5283 29.2257 19.3286C29.24 19.2208 29.25 19.1118 29.25 19V18.75C29.25 18.1985 28.8015 17.75 28.25 17.75V16.4273C29.2251 15.959 30.0478 15.2244 30.6229 14.3082C31.1981 13.392 31.5021 12.3318 31.5 11.25ZM19.9245 27.75C19.1395 27.75 18.4013 27.4443 17.8358 26.8788C17.5578 26.5993 17.2273 26.3778 16.8632 26.2269C16.499 26.0761 16.1086 25.999 15.7145 26H14.5V20.4895H15.7248C16.5263 20.4895 17.2795 20.1773 17.846 19.6108C18.1184 19.3371 18.4423 19.1201 18.7991 18.9723C19.1558 18.8246 19.5384 18.749 19.9245 18.75H28.25V19C28.25 19.8273 27.5772 20.5 26.75 20.5H23.75C23.6174 20.5 23.4902 20.5527 23.3964 20.6465C23.3027 20.7403 23.25 20.8674 23.25 21C23.25 22.3785 22.1285 23.5 20.75 23.5C20.1886 23.5021 19.6431 23.3132 19.2033 22.9643C19.1517 22.9236 19.0926 22.8935 19.0294 22.8757C18.9662 22.8579 18.9001 22.8527 18.8349 22.8604C18.7697 22.8681 18.7067 22.8885 18.6494 22.9206C18.5921 22.9527 18.5417 22.9957 18.501 23.0473C18.4603 23.0989 18.4302 23.1579 18.4124 23.2211C18.3946 23.2843 18.3894 23.3504 18.3971 23.4156C18.4048 23.4808 18.4252 23.5439 18.4573 23.6012C18.4894 23.6585 18.5324 23.7089 18.584 23.7495C19.2 24.2382 19.9638 24.5028 20.75 24.5C21.729 24.5 22.6143 24.0948 23.25 23.4448V27.75H19.9245ZM27.25 29C27.2508 29.2054 27.2091 29.4087 27.1274 29.5971C27.0457 29.7855 26.9259 29.955 26.7755 30.0948C26.6257 30.236 26.4483 30.3446 26.2545 30.4137C26.0606 30.4829 25.8546 30.5112 25.6493 30.4968C24.8647 30.446 24.25 29.7585 24.25 28.9315V21.5H25V27.25C25 28.0773 25.6728 28.75 26.5 28.75H27.25V29ZM29.25 20.75V27.25C29.25 27.5258 29.0257 27.75 28.75 27.75H26.5C26.2243 27.75 26 27.5258 26 27.25V21.5H26.75C27.6628 21.5 28.4603 21.0068 28.8968 20.2745C28.9987 20.3057 29.088 20.3686 29.1516 20.4542C29.2151 20.5398 29.2496 20.6435 29.25 20.75ZM27.5592 15.6411C27.4677 15.6788 27.3895 15.7429 27.3344 15.8252C27.2794 15.9075 27.25 16.0043 27.25 16.1033V17.75H24.25V16.1035C24.25 16.0045 24.2206 15.9078 24.1656 15.8255C24.1105 15.7432 24.0323 15.6791 23.9408 15.6413C23.0697 15.2844 22.3248 14.6761 21.801 13.894C21.2772 13.1118 20.9983 12.1914 21 11.25C21 9.5813 21.8625 8.0673 23.25 7.2113V11C23.25 11.5515 23.6985 12 24.25 12H27.25C27.8015 12 28.25 11.5515 28.25 11V7.21105C29.6375 8.06705 30.5 9.58105 30.5 11.2498C30.5017 12.1911 30.2229 13.1116 29.6991 13.8938C29.1753 14.6759 28.4303 15.2842 27.5592 15.6411Z" fill="#F35D22"/>
</svg>
