<svg width="40" height="40" viewBox="0 0 40 40" fill="none" xmlns="http://www.w3.org/2000/svg">
<g clip-path="url(#clip0_1_426)">
<path d="M34.6666 10H36V19.3333H34.6666V10Z" fill="#F55B1F"/>
<path d="M0.0914713 32.6558C0.121094 32.7841 0.160156 32.9101 0.208659 33.0325C0.227865 33.079 0.257487 33.1197 0.279297 33.1659C0.472656 33.5943 0.785807 33.9579 1.18066 34.2131C1.27799 34.2743 1.37891 34.3293 1.4834 34.3779C1.53451 34.4032 1.58138 34.4364 1.63477 34.4592C1.75358 34.5051 1.87565 34.5426 2 34.5712C2.04655 34.5833 2.08919 34.6031 2.13672 34.6126C2.3112 34.648 2.48861 34.6663 2.66667 34.6666H20.6667V33.3333H2.66667C2.57715 33.3333 2.48763 33.3241 2.40007 33.3066C2.36784 33.2997 2.33789 33.2864 2.30664 33.2779C2.25391 33.2649 2.20215 33.2489 2.15137 33.2297C2.10579 33.2079 2.0612 33.1835 2.0179 33.1571C1.98796 33.1399 1.95605 33.1266 1.92741 33.1077C1.85579 33.0588 1.78874 33.0032 1.72721 32.9417C1.66602 32.8805 1.61068 32.8137 1.56185 32.7418C1.53678 32.7037 1.5179 32.6611 1.49544 32.6204C1.47266 32.5797 1.45475 32.5536 1.43945 32.5159C1.41732 32.4599 1.39941 32.4023 1.38607 32.3437C1.37858 32.3176 1.36719 32.2932 1.36198 32.2659C1.28223 31.8739 1.38249 31.4667 1.63542 31.1568C1.88802 30.8469 2.2666 30.6669 2.66667 30.6666H4.66667C5.03483 30.6666 5.33333 30.3681 5.33333 29.9999V6.66659H28.6667V5.33325H5.33333V1.99992C5.33333 1.63143 5.03483 1.33325 4.66667 1.33325H2.66667C1.19401 1.33325 0 2.52694 0 3.99992V31.9999C0 32.179 0.0182292 32.3577 0.0540365 32.5331C0.0628255 32.5745 0.0807292 32.6139 0.0914713 32.6558ZM1.33333 3.99992C1.33333 3.26327 1.93034 2.66659 2.66667 2.66659H4V29.3333H2.66667C2.19824 29.3323 1.73828 29.456 1.33333 29.691V3.99992Z" fill="#F55B1F"/>
<path d="M18.1426 15.1113L16.7207 13.3333H22.6667V12H15.3334C15.1358 12.001 14.9493 12.0895 14.8233 12.2419C14.8233 12.2458 14.8155 12.2464 14.8129 12.25L9.47953 18.9167C9.4447 18.9616 9.41541 19.0111 9.39262 19.0632C9.39262 19.0677 9.38741 19.0713 9.38546 19.0758C9.35649 19.1491 9.34054 19.2269 9.33858 19.306C9.33858 19.3158 9.33337 19.3239 9.33337 19.3333V27.3333C9.33337 27.7015 9.63188 28 10 28H27.3334V26.6667H21.3334V20H30.6667V24H32V19.3333C32 19.3239 31.9948 19.3158 31.9948 19.306C31.9929 19.2272 31.9773 19.1497 31.948 19.0765C31.948 19.0706 31.9414 19.0664 31.9395 19.0612C31.9174 19.0098 31.8887 18.9613 31.8539 18.9173L29.8539 16.4144L28.8129 17.2464L29.946 18.6667H20.9873L18.1426 15.1113ZM15.3334 13.7331L17.9639 17.0218L19.2793 18.6667H11.3874L15.3334 13.7331ZM10.6667 20H20V26.6667H18V22C18 21.6315 17.7015 21.3333 17.3334 21.3333H13.3334C12.9652 21.3333 12.6667 21.6315 12.6667 22V26.6667H10.6667V20ZM14 26.6667V22.6667H16.6667V26.6667H14Z" fill="#F55B1F"/>
<path d="M24.6667 21.3333C24.2985 21.3333 24 21.6314 24 21.9999V24.6666C24 25.0347 24.2985 25.3333 24.6667 25.3333H27.3333C27.7015 25.3333 28 25.0347 28 24.6666V21.9999C28 21.6314 27.7015 21.3333 27.3333 21.3333H24.6667ZM26.6667 23.9999H25.3333V22.6666H26.6667V23.9999Z" fill="#F55B1F"/>
<path d="M39.5886 18.0505C39.3396 17.9473 39.0528 18.0046 38.862 18.1953L18.1954 38.862C18.0049 39.0524 17.9476 39.3392 18.0508 39.5882C18.154 39.8372 18.3972 39.9997 18.6667 40H39.3334C39.7015 40 40.0001 39.7015 40.0001 39.3333V18.6667C40.0001 18.3968 39.8376 18.1536 39.5886 18.0505ZM38.6667 38.6667H20.2761L38.6667 20.2757V38.6667Z" fill="#F55B1F"/>
<path d="M28.0508 35.5885C28.154 35.8376 28.3971 36 28.6667 36H35.3333C35.7015 36 36 35.7015 36 35.3333V28.6667C36 28.3968 35.8376 28.154 35.5885 28.0508C35.3395 27.9476 35.0527 28.0046 34.862 28.1953L28.1953 34.862C28.0046 35.0524 27.9476 35.3392 28.0508 35.5885ZM34.6667 30.2757V34.6667H30.276L34.6667 30.2757Z" fill="#F55B1F"/>
<path d="M37.138 0.195312C36.8776 -0.0651042 36.4557 -0.0651042 36.1953 0.195312L24.1953 12.1953C24.1224 12.2686 24.0674 12.3577 24.0345 12.4557L23.3678 14.4557C23.2881 14.6953 23.3503 14.9593 23.5286 15.1377L23.724 15.3333L22.1953 16.862L23.138 17.8044L24.6667 16.2757L24.862 16.471C24.987 16.5964 25.1566 16.6663 25.3333 16.6667C25.4049 16.6663 25.4759 16.6549 25.5439 16.6325L27.5439 15.9658C27.6423 15.9329 27.7314 15.8779 27.8047 15.8044L39.8047 3.80436C40.0648 3.54427 40.0648 3.12207 39.8047 2.86198L37.138 0.195312ZM25.9427 12.3333L28.6667 9.60905L30.3906 11.3333L27.6667 14.0573L25.9427 12.3333ZM25.514 15.2373L24.7633 14.4867L25.1247 13.4004L26.5999 14.8753L25.514 15.2373ZM31.3333 10.3906L29.6094 8.66667L36.6667 1.60905L38.3906 3.33333L31.3333 10.3906Z" fill="#F55B1F"/>
<path d="M6.66663 28V30C6.66663 30.3682 6.96513 30.6667 7.33329 30.6667H9.33329V29.3333H7.99996V28H6.66663Z" fill="#F55B1F"/>
<path d="M9.33329 8H7.33329C6.96513 8 6.66663 8.29818 6.66663 8.66667V10.6667H7.99996V9.33333H9.33329V8Z" fill="#F55B1F"/>
</g>
<defs>
<clipPath id="clip0_1_426">
<rect width="40" height="40" fill="white"/>
</clipPath>
</defs>
</svg>
