<svg width="40" height="40" viewBox="0 0 40 40" fill="none" xmlns="http://www.w3.org/2000/svg">
<g clip-path="url(#clip0_1_452)">
<path d="M26.4878 32.1715C26.897 32.1715 27.23 31.8385 27.23 31.4293V28.9009C27.23 28.4917 26.897 28.1587 26.4878 28.1587H23.9594C23.5501 28.1587 23.2172 28.4917 23.2172 28.9009V31.4293C23.2172 31.8385 23.5501 32.1715 23.9594 32.1715H26.4878ZM24.389 29.3306H26.0581V30.9997H24.389V29.3306Z" fill="#F55B1F"/>
<path d="M32.6106 32.1715C33.0198 32.1715 33.3528 31.8385 33.3528 31.4293V28.9009C33.3528 28.4917 33.0198 28.1587 32.6106 28.1587H30.0822C29.6729 28.1587 29.34 28.4917 29.34 28.9009V31.4293C29.34 31.8385 29.6729 32.1715 30.0822 32.1715H32.6106ZM30.5118 29.3306H32.1809V30.9997H30.5118V29.3306Z" fill="#F55B1F"/>
<path d="M36.773 38.828H35.9954V26.4569C35.9954 26.0463 35.7267 25.6976 35.3561 25.5763V19.7225C35.3561 19.399 35.0938 19.1366 34.7701 19.1366C34.4465 19.1366 34.1842 19.399 34.1842 19.7225V20.8694H28.8709V15.6594C28.8709 15.3358 28.6086 15.0735 28.285 15.0735C27.9613 15.0735 27.699 15.3358 27.699 15.6594V16.2088H22.3858V15.6594C22.3858 15.3358 22.1236 15.0735 21.7999 15.0735C21.4762 15.0735 21.214 15.3358 21.214 15.6594V23.778C20.851 23.9037 20.5893 24.2482 20.5893 24.6533V29.5687C20.5893 29.8923 20.8516 30.1547 21.1753 30.1547C21.499 30.1547 21.7612 29.8923 21.7612 29.5687V24.8983H29.34V25.8603C29.34 26.3243 29.7175 26.702 30.1817 26.702H34.8235V38.828H30.7853V34.6673C30.7853 34.2581 30.4523 33.9251 30.0431 33.9251H26.527C26.1178 33.9251 25.7848 34.2581 25.7848 34.6673V38.828H21.7613V32.303C21.7613 31.9794 21.499 31.7171 21.1754 31.7171C20.8517 31.7171 20.5894 31.9794 20.5894 32.303V38.828H19.8118C19.4881 38.828 19.2258 39.0904 19.2258 39.414C19.2258 39.7375 19.4881 39.9999 19.8118 39.9999H36.7731C37.0968 39.9999 37.359 39.7375 37.359 39.414C37.359 39.0904 37.0967 38.828 36.773 38.828ZM27.699 17.3806V20.8693H22.3858V17.3806H27.699ZM22.3858 22.0412H27.699V23.7263H22.3858V22.0412ZM29.585 23.7263H28.8709V22.0412H34.1842V25.53H30.5119V24.6533C30.5118 24.1422 30.0961 23.7263 29.585 23.7263ZM26.9566 35.097H29.6133V38.828H26.9566V35.097Z" fill="#F55B1F"/>
<path d="M16.5419 36.5525C16.4447 36.2311 16.1538 36.0151 15.8179 36.0151H14.9043V10.6248H15.4419C15.7159 10.6248 15.9743 10.5045 16.1508 10.2949C16.3274 10.0852 16.4018 9.81009 16.3552 9.53993L16.2834 9.1247H21.8586C22.1822 9.1247 22.4445 8.86235 22.4445 8.53876C22.4445 8.21517 22.1822 7.95282 21.8586 7.95282H16.0808L15.8236 6.46532H34.0368C34.4469 6.46532 34.7806 6.79899 34.7806 7.20907C34.7806 7.61915 34.4469 7.95282 34.0368 7.95282H24.593C24.2694 7.95282 24.0071 8.21517 24.0071 8.53876C24.0071 8.86235 24.2694 9.1247 24.593 9.1247H31.932V13.1265C31.1419 13.3759 30.5674 14.1157 30.5674 14.9872C30.5674 16.0627 31.4424 16.9377 32.5179 16.9377C33.5935 16.9377 34.4685 16.0627 34.4685 14.9872C34.4685 14.6636 34.2062 14.4013 33.8826 14.4013C33.5589 14.4013 33.2966 14.6636 33.2966 14.9872C33.2966 15.4166 32.9473 15.7658 32.5179 15.7658C32.0886 15.7658 31.7393 15.4165 31.7393 14.9872C31.7393 14.5579 32.0886 14.2085 32.5179 14.2085C32.8416 14.2085 33.1039 13.9462 33.1039 13.6226V9.12477H34.0369C35.0933 9.12477 35.9526 8.2654 35.9526 7.20915C35.9526 6.1529 35.0933 5.29353 34.0369 5.29353H29.7645L12.4919 0.0250098C12.4911 0.0247754 12.4903 0.0246192 12.4894 0.0243848C12.4176 0.0028223 12.3569 -0.00194333 12.296 0.000634796C12.1849 0.00524417 12.089 0.0384473 12.0043 0.0929786C11.9597 0.121572 12.6474 -0.342413 4.32107 5.29337H3.48263C3.01865 5.29337 2.64115 5.67087 2.64115 6.13478V8.28321C2.64115 8.7472 3.01865 9.12462 3.48263 9.12462H4.62779V11.2112H3.56787C3.05677 11.2112 2.64099 11.627 2.64099 12.1381V14.1853C2.64099 14.6964 3.05677 15.1122 3.56787 15.1122H6.85943C7.37052 15.1122 7.7863 14.6964 7.7863 14.1853V12.1381C7.7863 11.627 7.37052 11.2112 6.85943 11.2112H5.79966V9.12462H8.39427L8.32248 9.53993C8.27584 9.81001 8.35029 10.0852 8.52685 10.2949C8.70333 10.5045 8.96177 10.6247 9.23584 10.6247H9.73771V36.015H8.82412C8.48857 36.015 8.19763 36.2307 8.10013 36.5521L7.35107 39.0242C7.28193 39.2522 7.32544 39.5027 7.46748 39.6941C7.60943 39.8856 7.83662 39.9999 8.0749 39.9999H16.567C16.8054 39.9999 17.0326 39.8856 17.1746 39.6941C17.3165 39.5027 17.3601 39.2522 17.2909 39.0242L16.5419 36.5525ZM6.61451 13.9404H3.81287V12.3831H6.61451V13.9404ZM13.7323 30.6649L11.644 28.3569H13.7323V30.6649ZM13.7323 26.25L11.644 23.942H13.7323V26.25ZM13.7323 21.8351L11.644 19.527H13.7323V21.8351ZM13.7323 17.4202L11.644 15.112H13.7323V17.4202ZM12.9979 18.3551H10.9096V16.047L12.9979 18.3551ZM12.9979 22.7701H10.9096V20.462L12.9979 22.7701ZM12.9979 27.185H10.9096V24.877L12.9979 27.185ZM10.9096 29.2919L12.9979 31.5999H10.9096V29.2919ZM10.9096 13.9402V11.6316L12.998 13.9402H10.9096ZM13.7323 32.7718V35.08L11.6439 32.7718H13.7323ZM13.7323 13.0051L11.5789 10.6248H13.7323V13.0051ZM15.6211 5.29337L15.4946 4.56181C15.4175 4.11634 15.0334 3.79298 14.5812 3.79298H12.9069V1.37681L25.7475 5.29329L15.6211 5.29337ZM11.7351 1.6897V3.7929H10.0965C9.64419 3.7929 9.26013 4.11634 9.1831 4.56188L9.05662 5.29329H6.41162L11.7351 1.6897ZM5.21599 7.95274H3.81302V6.46524H8.85404L8.59685 7.95274H5.21599ZM9.66412 8.65845C9.66474 8.65556 9.66505 8.65259 9.66568 8.64962L10.3028 4.96478H14.375L15.1509 9.45282H9.52677L9.66412 8.65845ZM10.9096 33.7069L12.998 36.0151H10.9096V33.7069ZM8.63505 38.8281L9.13224 37.187H15.5097L16.007 38.8281H8.63505Z" fill="#F55B1F"/>
</g>
<defs>
<clipPath id="clip0_1_452">
<rect width="40" height="40" fill="white"/>
</clipPath>
</defs>
</svg>
