<svg width="40" height="40" viewBox="0 0 40 40" fill="none" xmlns="http://www.w3.org/2000/svg">
<g clip-path="url(#clip0_1_474)">
<path d="M8.35938 14.8438C8.35938 21.3056 13.6163 26.5625 20.0781 26.5625C26.5399 26.5625 31.7969 21.3056 31.7969 14.8438C31.7969 8.38197 26.5399 3.125 20.0781 3.125C13.6163 3.125 8.35938 8.38197 8.35938 14.8438ZM20.0781 4.6875C25.6784 4.6875 30.2344 9.24348 30.2344 14.8438C30.2344 20.4441 25.6784 25 20.0781 25C14.4779 25 9.92188 20.4441 9.92188 14.8438C9.92188 9.24348 14.4779 4.6875 20.0781 4.6875Z" fill="#F55B1F"/>
<path d="M12.843 13.4509L15.8713 16.4346L15.1746 20.6281C15.1261 20.9201 15.2466 21.2143 15.4862 21.3883C15.7254 21.5622 16.0425 21.5857 16.3053 21.4496L20.0781 19.4904L23.8507 21.4496C24.1114 21.5848 24.4284 21.5637 24.6698 21.3883C24.9094 21.2143 25.0299 20.9201 24.9814 20.6281L24.2847 16.4346L27.313 13.4509C27.5238 13.2434 27.5992 12.9346 27.5077 12.6529C27.4161 12.3715 27.1735 12.1661 26.8808 12.1219L22.6783 11.4893L20.7767 7.68646C20.6446 7.42188 20.3739 7.25464 20.0781 7.25464C19.7821 7.25464 19.5117 7.42188 19.3793 7.68646L17.4777 11.4893L13.2752 12.1219C12.9825 12.1658 12.7399 12.3715 12.6483 12.6529C12.5568 12.9346 12.6325 13.2434 12.843 13.4509ZM18.1116 12.9739C18.3631 12.9361 18.5803 12.7783 18.6942 12.551L20.0781 9.78272L21.4621 12.551C21.576 12.7783 21.7932 12.9361 22.0447 12.9739L25.1035 13.4345L22.8992 15.6058C22.7182 15.7843 22.6352 16.0397 22.6767 16.2906L23.1839 19.3427L20.438 17.9169C20.3253 17.8583 20.2017 17.829 20.0781 17.829C19.9546 17.829 19.831 17.8583 19.718 17.9169L16.9721 19.3427L17.4793 16.2906C17.5211 16.0397 17.4381 15.7843 17.2568 15.6058L15.0528 13.4345L18.1116 12.9739Z" fill="#F55B1F"/>
<path d="M20.8594 0.781251C20.8594 1.21277 20.5097 1.5625 20.0782 1.5625C19.6466 1.5625 19.2969 1.21277 19.2969 0.781251C19.2969 0.349732 19.6466 0 20.0782 0C20.5097 0 20.8594 0.349732 20.8594 0.781251Z" fill="#F55B1F"/>
<path d="M16.3962 0.460534C9.82423 2.13809 5.23438 8.05271 5.23438 14.8438C5.23438 19.0616 7.00775 23.0359 10.1209 25.8506L5.41412 34.1456C5.26276 34.4126 5.28168 34.7434 5.46234 34.9912C5.64301 35.2393 5.95184 35.3587 6.25244 35.2961L11.5976 34.1862L13.4763 39.4801C13.5782 39.7682 13.8391 39.9699 14.1437 39.997C14.4483 40.0242 14.7403 39.8707 14.8914 39.6049L20.0781 30.4862L25.2646 39.6049C25.4044 39.8505 25.6644 39.9998 25.9433 39.9998C25.9662 39.9998 25.9894 39.9989 26.0123 39.997C26.3169 39.9699 26.5778 39.7678 26.68 39.4801L28.5584 34.1862L33.9035 35.2961C34.2038 35.3584 34.513 35.239 34.6936 34.9912C34.8746 34.7434 34.8932 34.4126 34.7419 34.1456L30.0351 25.8506C33.1482 23.0359 34.9216 19.0616 34.9216 14.8438C34.9216 8.05271 30.3318 2.13809 23.7601 0.460534C23.3417 0.353723 22.9166 0.606103 22.8098 1.02419C22.703 1.44229 22.9553 1.8677 23.3734 1.97451C29.253 3.47537 33.3594 8.76743 33.3594 14.8438C33.3594 22.2391 27.3532 28.1251 20.0781 28.1251C12.7979 28.1251 6.79688 22.2342 6.79688 14.8438C6.79688 8.76743 10.903 3.47537 16.7825 1.97451C17.2006 1.8677 17.453 1.44229 17.3465 1.02419C17.2397 0.606103 16.8146 0.353723 16.3962 0.460534ZM14.3778 37.3481L12.8424 33.0216C12.7118 32.6536 12.3297 32.4384 11.9473 32.5178L7.62513 33.4153L11.3501 26.8503C13.522 28.4293 16.0938 29.3912 18.768 29.6293L14.3778 37.3481ZM28.2087 32.5178C27.8266 32.4384 27.4442 32.6536 27.3136 33.0216L25.7785 37.3481L21.388 29.6293C24.0625 29.3912 26.6339 28.4293 28.8062 26.8503L32.5312 33.4153L28.2087 32.5178Z" fill="#F55B1F"/>
</g>
<defs>
<clipPath id="clip0_1_474">
<rect width="40" height="40" fill="white"/>
</clipPath>
</defs>
</svg>
