<svg width="30" height="30" viewBox="0 0 30 30" fill="none" xmlns="http://www.w3.org/2000/svg">
<g clip-path="url(#clip0_12_97)">
<path opacity="0.976" fill-rule="evenodd" clip-rule="evenodd" d="M6.76758 -0.0292969C6.94336 -0.0292969 7.11914 -0.0292969 7.29492 -0.0292969C11.756 1.2262 16.2286 2.46643 20.7129 3.69141C23.7207 3.71094 26.7285 3.73047 29.7363 3.75C29.8447 3.79041 29.9229 3.85877 29.9707 3.95508C29.9707 4.73633 29.9707 5.51758 29.9707 6.29883C29.9229 6.39516 29.8447 6.46348 29.7363 6.50391C26.8458 6.5332 23.9551 6.54299 21.0645 6.5332C21.045 7.17891 21.0645 7.82344 21.123 8.4668C21.8602 8.82797 22.1434 9.41391 21.9727 10.2246C21.8826 10.4612 21.7556 10.676 21.5918 10.8691C22.158 11.3472 22.7342 11.816 23.3203 12.2754C23.5449 12.9883 23.3008 13.2324 22.5879 13.0078C21.9323 12.4596 21.2682 11.9225 20.5957 11.3965C18.7291 12.9018 16.8541 14.3959 14.9707 15.8789C18.7207 15.918 22.4707 15.918 26.2207 15.8789C25.4688 15.2832 24.7168 14.6875 23.9648 14.0918C23.7497 13.6427 23.8767 13.3692 24.3457 13.2715C24.5056 13.2595 24.6423 13.3083 24.7559 13.418C25.8132 14.2996 26.8874 15.159 27.9785 15.9961C28.1216 16.2335 28.1314 16.4777 28.0078 16.7285C27.9639 16.7652 27.915 16.7945 27.8613 16.8164C23.0176 16.8555 18.1738 16.8555 13.3301 16.8164C13.1534 16.7268 13.0753 16.5803 13.0957 16.377C13.0901 16.2348 13.1291 16.1078 13.2129 15.9961C15.3321 14.3067 17.4512 12.6172 19.5703 10.9277C19.5265 10.7827 19.4484 10.646 19.3359 10.5176C19.23 9.90059 19.4742 9.676 20.0684 9.84375C20.2638 10.226 20.547 10.3138 20.918 10.1074C21.0352 9.91213 21.0352 9.71678 20.918 9.52148C20.7027 9.41145 20.4781 9.32355 20.2441 9.25781C20.2075 9.21387 20.1782 9.165 20.1562 9.11133C20.127 8.25217 20.1172 7.39277 20.127 6.5332C16.2207 6.5332 12.3145 6.5332 8.4082 6.5332C8.4082 13.4082 8.4082 20.2832 8.4082 27.1582C9.30188 26.9944 9.91711 27.3265 10.2539 28.1543C10.293 28.6816 10.293 29.209 10.2539 29.7363C10.2135 29.8447 10.1452 29.9229 10.0488 29.9707C8.01756 29.9707 5.98635 29.9707 3.95508 29.9707C3.85877 29.9229 3.79041 29.8447 3.75 29.7363C3.71094 29.209 3.71094 28.6816 3.75 28.1543C4.08677 27.3265 4.70201 26.9944 5.5957 27.1582C5.5957 20.2832 5.5957 13.4082 5.5957 6.5332C5.28321 6.5332 4.9707 6.5332 4.6582 6.5332C4.68454 7.12529 4.65524 7.71123 4.57031 8.29102C4.52634 8.32769 4.47751 8.35699 4.42383 8.37891C3.87696 8.38869 3.33008 8.39842 2.7832 8.4082C2.19171 8.41658 1.60577 8.38729 1.02539 8.32031C0.988723 8.27637 0.959426 8.2275 0.9375 8.17383C0.908215 7.62732 0.898447 7.08041 0.908203 6.5332C0.67302 6.54293 0.438643 6.53314 0.205078 6.50391C0.0966662 6.46348 0.0185411 6.39516 -0.0292969 6.29883C-0.0292969 5.51758 -0.0292969 4.73633 -0.0292969 3.95508C0.0185411 3.85877 0.0966662 3.79041 0.205078 3.75C0.582529 3.74515 0.953625 3.7061 1.31836 3.63281C3.13861 2.41075 4.95502 1.19005 6.76758 -0.0292969ZM7.70508 1.14258C10.7668 2.00085 13.8333 2.85046 16.9043 3.69141C14.0527 3.73047 11.2012 3.73047 8.34961 3.69141C8.11201 2.84855 7.89721 1.99894 7.70508 1.14258ZM6.12305 1.61133C6.15803 1.62511 6.17754 1.65441 6.18164 1.69922C6.01459 2.36747 5.83882 3.03154 5.6543 3.69141C4.77539 3.73047 3.89648 3.73047 3.01758 3.69141C4.0631 3.00608 5.09826 2.31271 6.12305 1.61133ZM6.94336 2.60742C7.00699 2.61445 7.04607 2.65352 7.06055 2.72461C7.18752 3.23242 7.31443 3.74023 7.44141 4.24805C7.48049 4.61914 7.48049 4.99024 7.44141 5.36133C7.16971 4.9237 6.88652 4.49402 6.5918 4.07227C6.73676 3.59012 6.85395 3.10184 6.94336 2.60742ZM0.908203 4.6582C2.47071 4.6582 4.0332 4.6582 5.5957 4.6582C5.5957 4.9707 5.5957 5.28321 5.5957 5.5957C4.0332 5.5957 2.47071 5.5957 0.908203 5.5957C0.908203 5.28321 0.908203 4.9707 0.908203 4.6582ZM8.4082 4.6582C8.95541 4.64845 9.50232 4.65822 10.0488 4.6875C9.62859 4.9464 9.21844 5.21984 8.81836 5.50781C8.6908 5.57825 8.55404 5.60755 8.4082 5.5957C8.4082 5.28321 8.4082 4.9707 8.4082 4.6582ZM13.3301 4.7168C14.1012 4.6488 14.8825 4.63904 15.6738 4.6875C15.2908 4.94718 14.9002 5.19132 14.502 5.41992C14.1103 5.18512 13.7197 4.95075 13.3301 4.7168ZM18.9551 4.7168C19.7262 4.6488 20.5075 4.63904 21.2988 4.6875C20.9158 4.94718 20.5252 5.19132 20.127 5.41992C19.7353 5.18512 19.3447 4.95075 18.9551 4.7168ZM24.5801 4.7168C25.3512 4.6488 26.1325 4.63904 26.9238 4.6875C26.5408 4.94718 26.1502 5.19132 25.752 5.41992C25.3603 5.18512 24.9697 4.95075 24.5801 4.7168ZM28.7402 4.6582C28.8379 4.6582 28.9355 4.6582 29.0332 4.6582C29.0332 4.9707 29.0332 5.28321 29.0332 5.5957C28.486 5.60546 27.9391 5.59569 27.3926 5.56641C27.8522 5.2717 28.3014 4.96897 28.7402 4.6582ZM11.5723 4.83398C11.6527 4.8248 11.7309 4.83457 11.8066 4.86328C12.1582 5.09766 12.5098 5.33203 12.8613 5.56641C12.0801 5.60547 11.2988 5.60547 10.5176 5.56641C10.8833 5.33539 11.2348 5.09126 11.5723 4.83398ZM17.1973 4.83398C17.2777 4.8248 17.3559 4.83457 17.4316 4.86328C17.7832 5.09766 18.1348 5.33203 18.4863 5.56641C17.7051 5.60547 16.9238 5.60547 16.1426 5.56641C16.5083 5.33539 16.8598 5.09126 17.1973 4.83398ZM22.8223 4.83398C22.9027 4.8248 22.9809 4.83457 23.0566 4.86328C23.4082 5.09766 23.7598 5.33203 24.1113 5.56641C23.3301 5.60547 22.5488 5.60547 21.7676 5.56641C22.1333 5.33539 22.4848 5.09126 22.8223 4.83398ZM6.5332 5.83008C6.81574 6.19916 7.06963 6.5898 7.29492 7.00195C7.06635 7.40021 6.82219 7.7908 6.5625 8.17383C6.5332 7.39283 6.52342 6.61154 6.5332 5.83008ZM1.8457 6.5332C2.47071 6.5332 3.0957 6.5332 3.7207 6.5332C3.7207 6.84568 3.7207 7.15822 3.7207 7.4707C3.0957 7.4707 2.47071 7.4707 1.8457 7.4707C1.8457 7.15822 1.8457 6.84568 1.8457 6.5332ZM7.41211 8.64258C7.48008 9.41367 7.48986 10.195 7.44141 10.9863C7.18172 10.6033 6.93756 10.2127 6.70898 9.81445C6.94377 9.42281 7.17814 9.03217 7.41211 8.64258ZM6.5332 11.4551C6.81574 11.8242 7.06963 12.2148 7.29492 12.627C7.06635 13.0252 6.82219 13.4158 6.5625 13.7988C6.5332 13.0178 6.52342 12.2365 6.5332 11.4551ZM7.41211 14.2676C7.48008 15.0387 7.48986 15.82 7.44141 16.6113C7.18172 16.2283 6.93756 15.8377 6.70898 15.4395C6.94377 15.0478 7.17814 14.6572 7.41211 14.2676ZM6.5332 17.0801C6.81574 17.4492 7.06963 17.8398 7.29492 18.252C7.06635 18.6502 6.82219 19.0408 6.5625 19.4238C6.5332 18.6428 6.52342 17.8615 6.5332 17.0801ZM7.41211 19.8926C7.48008 20.6637 7.48986 21.445 7.44141 22.2363C7.18172 21.8533 6.93756 21.4627 6.70898 21.0645C6.94377 20.6728 7.17814 20.2822 7.41211 19.8926ZM6.5332 22.7051C6.81574 23.0742 7.06963 23.4648 7.29492 23.877C7.06635 24.2752 6.82219 24.6658 6.5625 25.0488C6.5332 24.2678 6.52342 23.4865 6.5332 22.7051ZM7.41211 25.5176C7.47035 26.0538 7.48986 26.6007 7.4707 27.1582C7.15822 27.1582 6.84568 27.1582 6.5332 27.1582C6.52137 27.0124 6.55066 26.8756 6.62109 26.748C6.91523 26.3545 7.17891 25.9443 7.41211 25.5176ZM5.12695 28.0957C6.37711 28.0859 7.62709 28.0957 8.87695 28.125C9.14062 28.1543 9.28711 28.3008 9.31641 28.5645C9.34553 28.7195 9.35531 28.8758 9.3457 29.0332C7.78318 29.0332 6.22072 29.0332 4.6582 29.0332C4.62897 28.7482 4.68756 28.4845 4.83398 28.2422C4.94031 28.1978 5.03796 28.149 5.12695 28.0957Z" fill="white"/>
<path opacity="0.988" fill-rule="evenodd" clip-rule="evenodd" d="M27.041 29.9707C22.7441 29.9707 18.4472 29.9707 14.1503 29.9707C13.624 29.8056 13.2822 29.454 13.1249 28.916C13.1152 26.1229 13.0859 23.3299 13.0371 20.5371C12.1365 20.0325 11.9119 19.3098 12.3632 18.3692C12.5633 18.0907 12.8269 17.9052 13.1542 17.8125C18.1152 17.7734 23.0761 17.7734 28.0371 17.8125C28.8563 18.1323 29.1786 18.728 29.0039 19.5996C28.8546 20.0322 28.5714 20.3446 28.1542 20.5371C28.1054 23.3299 28.0761 26.1229 28.0664 28.916C27.9091 29.454 27.5673 29.8056 27.041 29.9707ZM13.5644 18.7207C18.252 18.7109 22.9395 18.7207 27.6269 18.75C27.9691 18.8189 28.0961 19.024 28.0078 19.3652C27.9785 19.4727 27.9101 19.541 27.8027 19.5703C26.7323 19.6461 25.6581 19.6852 24.58 19.6875C24.4726 19.7168 24.4042 19.7852 24.3749 19.8926C24.3359 20.0489 24.3359 20.2051 24.3749 20.3613C24.4042 20.4687 24.4726 20.5371 24.58 20.5664C25.4392 20.5957 26.2986 20.6055 27.1582 20.5957C27.1679 23.2521 27.1582 25.9083 27.1289 28.5645C27.0544 28.8147 26.8884 28.9611 26.6308 29.0039C25.2442 29.0332 23.8575 29.043 22.4707 29.0332C22.4981 27.7403 22.4688 26.4512 22.3828 25.166C21.9948 24.4598 21.3991 24.1863 20.5957 24.3457C19.7922 24.1863 19.1965 24.4598 18.8085 25.166C18.7225 26.4512 18.6932 27.7403 18.7206 29.0332C17.3338 29.043 15.9471 29.0332 14.5605 29.0039C14.3029 28.9611 14.1369 28.8147 14.0624 28.5645C14.0331 25.9083 14.0234 23.2521 14.0331 20.5957C17.0801 20.6055 20.127 20.5957 23.1738 20.5664C23.2812 20.5371 23.3496 20.4687 23.3789 20.3613C23.4179 20.2051 23.4179 20.0489 23.3789 19.8926C23.3496 19.7852 23.2812 19.7168 23.1738 19.6875C19.9706 19.668 16.7675 19.6484 13.5644 19.6289C13.1632 19.5196 13.0558 19.2755 13.2421 18.8965C13.3521 18.8315 13.4595 18.7729 13.5644 18.7207ZM15.9081 22.4707C16.2206 22.4707 16.5332 22.4707 16.8456 22.4707C16.8456 22.7832 16.8456 23.0957 16.8456 23.4082C16.5332 23.4082 16.2206 23.4082 15.9081 23.4082C15.9081 23.0957 15.9081 22.7832 15.9081 22.4707ZM24.3457 22.4707C24.6581 22.4707 24.9707 22.4707 25.2832 22.4707C25.2832 22.7832 25.2832 23.0957 25.2832 23.4082C24.9707 23.4082 24.6581 23.4082 24.3457 23.4082C24.3457 23.0957 24.3457 22.7832 24.3457 22.4707ZM20.1269 25.2832C20.44 25.2735 20.7525 25.2833 21.0644 25.3125C21.2398 25.3363 21.3668 25.4242 21.4453 25.5762C21.531 26.7246 21.5603 27.8769 21.5332 29.0332C20.9081 29.0332 20.2832 29.0332 19.6582 29.0332C19.6484 27.9393 19.6582 26.8456 19.6874 25.752C19.7273 25.4877 19.8738 25.3314 20.1269 25.2832Z" fill="white"/>
<path opacity="0.988" fill-rule="evenodd" clip-rule="evenodd" d="M15.2051 21.5332C15.9865 21.5234 16.7678 21.5332 17.5488 21.5625C17.6025 21.5844 17.6514 21.6137 17.6953 21.6504C17.7617 22.0742 17.791 22.5039 17.7832 22.9395C18.1152 24.209 17.6465 24.6778 16.3769 24.3457C15.9863 24.3359 15.5957 24.3262 15.2051 24.3164C15.1514 24.2945 15.1025 24.2652 15.0586 24.2285C14.963 23.4137 14.9435 22.5934 15 21.7676C15.0404 21.6592 15.1087 21.581 15.2051 21.5332ZM15.9082 22.4707C15.9082 22.7832 15.9082 23.0957 15.9082 23.4082C16.2207 23.4082 16.5332 23.4082 16.8457 23.4082C16.8457 23.0957 16.8457 22.7832 16.8457 22.4707C16.5332 22.4707 16.2207 22.4707 15.9082 22.4707Z" fill="white"/>
<path opacity="0.988" fill-rule="evenodd" clip-rule="evenodd" d="M23.6426 21.5332C24.424 21.5234 25.2053 21.5332 25.9863 21.5625C26.04 21.5844 26.0889 21.6137 26.1328 21.6504C26.1992 22.0742 26.2285 22.5039 26.2207 22.9395C26.5527 24.209 26.084 24.6778 24.8144 24.3457C24.4238 24.3359 24.0332 24.3262 23.6426 24.3164C23.5889 24.2945 23.54 24.2652 23.4961 24.2285C23.4005 23.4137 23.381 22.5934 23.4375 21.7676C23.4779 21.6592 23.5462 21.581 23.6426 21.5332ZM24.3457 22.4707C24.3457 22.7832 24.3457 23.0957 24.3457 23.4082C24.6582 23.4082 24.9707 23.4082 25.2832 23.4082C25.2832 23.0957 25.2832 22.7832 25.2832 22.4707C24.9707 22.4707 24.6582 22.4707 24.3457 22.4707Z" fill="white"/>
</g>
<defs>
<clipPath id="clip0_12_97">
<rect width="30" height="30" fill="white"/>
</clipPath>
</defs>
</svg>
