<svg width="40" height="40" viewBox="0 0 40 40" fill="none" xmlns="http://www.w3.org/2000/svg">
<path opacity="0.942" fill-rule="evenodd" clip-rule="evenodd" d="M8.26528 -0.0390625C8.73398 -0.0390625 9.20269 -0.0390625 9.67139 -0.0390625C10.6072 0.205946 11.3363 0.7398 11.8587 1.5625C15.9468 3.88021 20.035 6.19791 24.1232 8.51562C25.4242 9.28055 26.1923 10.4134 26.4276 11.9141C26.4667 14.8045 26.4797 17.6952 26.4667 20.5859C27.3091 20.6351 27.908 21.0387 28.2634 21.7969C30.7372 21.8229 33.2108 21.849 35.6846 21.875C36.5592 21.9947 37.1191 22.4765 37.3641 23.3203C37.3775 23.7394 37.4165 24.1561 37.4813 24.5703C38.1294 24.8669 38.5331 25.3616 38.6921 26.0547C38.7181 28.138 38.7442 30.2213 38.7702 32.3047C39.3811 32.9538 39.7847 33.709 39.981 34.5703C39.981 35.1432 39.981 35.7162 39.981 36.2891C39.4863 38.2422 38.2625 39.4662 36.3095 39.9609C30.1642 39.9609 24.019 39.9609 17.8737 39.9609C15.5706 39.3555 14.3207 37.8581 14.1241 35.4688C14.1425 34.2409 14.5721 33.1862 15.413 32.3047C15.4391 31.7057 15.4651 31.1068 15.4912 30.5078C16.0602 27.5843 16.6591 24.6677 17.2879 21.7578C17.6824 20.9158 18.3464 20.5252 19.2799 20.5859C19.2799 19.0495 19.2799 17.513 19.2799 15.9766C17.7676 15.4662 17.1556 14.4245 17.4441 12.8516C17.5039 12.6409 17.595 12.4456 17.7175 12.2656C15.5172 10.0651 13.3169 7.86461 11.1166 5.66406C11.0385 5.74219 10.9603 5.82031 10.8822 5.89844C9.87544 11.4577 8.87295 17.0177 7.87469 22.5781C8.17685 22.9065 8.45026 23.258 8.69492 23.6328C9.01247 24.2755 9.11668 24.9527 9.00739 25.6641C8.87522 26.2138 8.67992 26.7346 8.42151 27.2266C8.58548 28.7673 8.78077 30.3038 9.00739 31.8359C9.17621 32.2259 9.38455 32.5905 9.63233 32.9297C10.4916 33.6328 11.3509 34.3359 12.2102 35.0391C12.2493 36.2367 12.2623 37.4346 12.2493 38.6328C12.692 38.6328 13.1346 38.6328 13.5773 38.6328C13.5773 39.0755 13.5773 39.5182 13.5773 39.9609C11.0254 39.9609 8.47361 39.9609 5.92175 39.9609C5.25769 39.7987 4.63275 39.5252 4.04692 39.1406C2.77535 38.0515 1.64265 36.8405 0.648802 35.5078C0.339765 34.9313 0.118432 34.3323 -0.0151978 33.7109C-0.0151978 33.0859 -0.0151978 32.4609 -0.0151978 31.8359C0.140288 31.0975 0.4137 30.3944 0.805038 29.7266C1.57319 28.8021 2.34135 27.8776 3.10951 26.9531C2.4255 25.7963 2.38644 24.6114 2.99233 23.3984C3.52417 22.6579 4.22722 22.1631 5.10151 21.9141C5.32893 15.5074 5.56329 9.10117 5.80457 2.69531C6.06642 1.27488 6.88665 0.363422 8.26528 -0.0390625ZM8.65586 1.28906C9.99753 1.23787 10.7526 1.8759 10.9213 3.20312C10.6316 4.72691 9.74631 5.29983 8.26528 4.92188C7.26425 4.36598 6.93876 3.54567 7.2888 2.46094C7.58428 1.87788 8.03998 1.48726 8.65586 1.28906ZM12.2493 3.39844C16.0074 5.49919 19.757 7.62159 23.4982 9.76562C24.4809 10.3891 25.0147 11.2875 25.0996 12.4609C25.1387 15.1691 25.1517 17.8775 25.1387 20.5859C23.6545 20.5859 22.1702 20.5859 20.686 20.5859C20.686 19.0495 20.686 17.513 20.686 15.9766C21.8988 15.6092 22.5499 14.7889 22.6389 13.5156C22.4989 12.152 21.7698 11.2926 20.4516 10.9375C20.1392 10.8854 19.8267 10.8854 19.5142 10.9375C19.2193 11.019 18.9329 11.0971 18.6549 11.1719C16.4546 8.97133 14.2543 6.77084 12.054 4.57031C12.1299 4.18684 12.195 3.79621 12.2493 3.39844ZM7.01539 5.74219C7.70325 6.26602 8.4844 6.50039 9.35892 6.44531C8.45151 11.6297 7.52713 16.812 6.58575 21.9922C6.51204 21.9326 6.47298 21.8545 6.46857 21.7578C6.68723 16.4215 6.8695 11.083 7.01539 5.74219ZM19.9048 12.2266C21.0518 12.4379 21.4294 13.0889 21.0375 14.1797C20.3345 14.9088 19.6314 14.9088 18.9283 14.1797C18.5477 13.17 18.8733 12.519 19.9048 12.2266ZM19.0455 21.9141C21.5193 21.901 23.9931 21.9141 26.4667 21.9531C26.6244 21.9883 26.7676 22.0534 26.8963 22.1484C27.0125 25.0584 27.0516 27.9751 27.0135 30.8984C24.0189 30.8854 21.0244 30.8984 18.03 30.9375C17.6206 30.9943 17.23 31.1115 16.8582 31.2891C16.8322 31.224 16.8061 31.1588 16.7801 31.0938C17.3524 28.1277 17.9643 25.172 18.6159 22.2266C18.733 22.0727 18.8762 21.9686 19.0455 21.9141ZM5.37492 23.2422C6.72175 23.1604 7.50292 23.7854 7.71845 25.1172C7.39517 26.6983 6.45776 27.2582 4.90622 26.7969C3.86806 26.0683 3.64672 25.1438 4.24222 24.0234C4.55293 23.6542 4.93049 23.3938 5.37492 23.2422ZM28.4196 23.2422C30.8414 23.2291 33.2631 23.2422 35.6846 23.2812C35.8654 23.3679 35.9826 23.5112 36.0361 23.7109C36.075 23.9439 36.0881 24.1783 36.0752 24.4141C34.3566 24.4141 32.638 24.4141 30.9194 24.4141C30.9194 24.8828 30.9194 25.3516 30.9194 25.8203C32.9506 25.8073 34.9817 25.8203 37.0126 25.8594C37.1037 25.9505 37.1948 26.0416 37.286 26.1328C37.3381 27.8516 37.3381 29.5703 37.286 31.2891C36.902 31.109 36.4984 30.9918 36.0752 30.9375C33.5235 30.8984 30.9716 30.8854 28.4196 30.8984C28.4196 29.2057 28.4196 27.513 28.4196 25.8203C28.8362 25.8203 29.2529 25.8203 29.6695 25.8203C29.6695 25.3516 29.6695 24.8828 29.6695 24.4141C29.2529 24.4141 28.8362 24.4141 28.4196 24.4141C28.4196 24.0234 28.4196 23.6328 28.4196 23.2422ZM20.5297 24.4922C22.0661 24.4922 23.6024 24.4922 25.1387 24.4922C25.1387 25.3255 25.1387 26.1588 25.1387 26.9922C23.4461 26.9922 21.7536 26.9922 20.061 26.9922C20.2273 26.1608 20.3835 25.3275 20.5297 24.4922ZM4.04692 27.9297C5.04035 28.4723 6.05588 28.5244 7.09351 28.0859C7.27371 29.1999 7.41692 30.3197 7.52316 31.4453C7.70059 32.6208 8.23442 33.5973 9.12457 34.375C9.69741 34.8177 10.2703 35.2604 10.8432 35.7031C10.9119 35.8091 10.938 35.9263 10.9213 36.0547C10.4786 36.0547 10.036 36.0547 9.59328 36.0547C9.59328 36.4974 9.59328 36.9401 9.59328 37.3828C10.036 37.3828 10.4786 37.3828 10.9213 37.3828C10.9213 37.7995 10.9213 38.2162 10.9213 38.6328C9.41079 38.6459 7.90047 38.6328 6.39045 38.5938C5.64693 38.4693 4.99595 38.1568 4.43751 37.6562C3.56006 36.831 2.73983 35.9586 1.9768 35.0391C1.02641 33.3068 1.13057 31.6402 2.28927 30.0391C2.89347 29.3444 3.47936 28.6413 4.04692 27.9297ZM18.6549 32.2266C24.4896 32.1895 30.3224 32.2285 36.1533 32.3438C38.2508 33.0886 38.9929 34.5339 38.3796 36.6797C37.8845 37.7805 37.0383 38.4184 35.8408 38.5938C29.8494 38.6705 23.8604 38.6445 17.8737 38.5156C16.151 37.8839 15.3829 36.647 15.5693 34.8047C16.0232 33.243 17.0518 32.3836 18.6549 32.2266ZM19.1236 34.1797C19.8864 34.1745 20.3681 34.539 20.5688 35.2734C20.5545 36.2773 20.0467 36.733 19.0455 36.6406C18.1354 36.2648 17.888 35.6269 18.3034 34.7266C18.5376 34.4736 18.811 34.2913 19.1236 34.1797ZM22.9514 34.1797C24.2453 34.2687 24.6749 34.9197 24.2403 36.1328C23.7063 36.7384 23.0944 36.8295 22.4046 36.4062C21.6973 35.4465 21.8796 34.7043 22.9514 34.1797ZM26.8573 34.1797C27.5857 34.1659 28.0674 34.5044 28.3025 35.1953C28.3258 36.2398 27.8181 36.7215 26.7792 36.6406C25.9511 36.3189 25.6777 35.733 25.9589 34.8828C26.1685 34.5252 26.468 34.2908 26.8573 34.1797ZM30.685 34.1797C31.9798 34.2709 32.4095 34.9219 31.974 36.1328C31.4467 36.7472 30.8347 36.8383 30.1382 36.4062C29.4538 35.4591 29.6361 34.7169 30.685 34.1797ZM34.5909 34.1797C35.3236 34.1713 35.8053 34.5098 36.0361 35.1953C35.9915 36.4879 35.3535 36.9176 34.1222 36.4844C33.5167 35.9503 33.4256 35.3384 33.8488 34.6484C34.0709 34.4404 34.3182 34.2841 34.5909 34.1797Z" fill="#F55B1F"/>
</svg>
