<svg width="41" height="40" viewBox="0 0 41 40" fill="none" xmlns="http://www.w3.org/2000/svg">
<g clip-path="url(#clip0_65_164)">
<path opacity="0.941" fill-rule="evenodd" clip-rule="evenodd" d="M40.2621 26.5234C40.2621 27.2005 40.2621 27.8776 40.2621 28.5547C40.0646 28.8429 39.8042 29.0642 39.4809 29.2188C35.2366 29.2709 30.9921 29.2709 26.7478 29.2188C26.3587 28.996 26.2546 28.6705 26.4353 28.2422C26.5134 28.1771 26.5915 28.112 26.6696 28.0469C30.7838 28.0078 34.8979 27.9948 39.0122 28.0078C39.0122 27.6953 39.0122 27.3828 39.0122 27.0703C33.7002 27.0703 28.3882 27.0703 23.0762 27.0703C23.0762 27.3828 23.0762 27.6953 23.0762 28.0078C23.6757 27.9948 24.2746 28.0078 24.8729 28.0469C25.168 28.2777 25.2591 28.5772 25.1463 28.9453C25.0515 29.0663 24.9343 29.1574 24.7948 29.2188C24.0918 29.2709 23.3887 29.2709 22.6856 29.2188C22.224 29.0954 21.9506 28.7959 21.8654 28.3203C21.7954 27.7152 21.8214 27.1162 21.9435 26.5234C22.0298 26.2549 22.1991 26.0596 22.4513 25.9375C22.808 25.8352 23.1725 25.7962 23.5449 25.8203C23.1654 23.8952 23.9465 23.0749 25.8885 23.3594C27.4639 21.7838 29.0392 20.2084 30.6146 18.6328C30.6536 16.4715 30.6667 14.3101 30.6536 12.1484C28.6486 12.1484 26.6436 12.1484 24.6386 12.1484C24.6516 13.2945 24.6386 14.4404 24.5995 15.5859C24.4302 16.0677 24.1048 16.3932 23.6231 16.5625C21.7742 16.6146 19.9255 16.6146 18.0767 16.5625C17.4662 16.3427 17.1147 15.913 17.0221 15.2734C16.983 14.2321 16.97 13.1904 16.983 12.1484C15.9415 12.1484 14.8999 12.1484 13.8583 12.1484C14.0613 19.8311 14.2827 27.5134 14.5223 35.1953C15.0892 35.3303 15.6751 35.4215 16.28 35.4688C17.0221 35.6901 17.5039 36.1719 17.7252 36.9141C17.8722 37.7499 17.8722 38.5832 17.7252 39.4141C17.6221 39.5693 17.4789 39.6605 17.2955 39.6875C14.8479 39.7396 12.4001 39.7396 9.95246 39.6875C9.62702 39.6105 9.47079 39.4022 9.48375 39.0625C9.46821 38.8067 9.57234 38.6245 9.79622 38.5156C12.0355 38.4766 14.2748 38.4635 16.5143 38.4766C16.5273 38.0591 16.5143 37.6424 16.4753 37.2266C16.3581 37.0052 16.1888 36.8359 15.9675 36.7188C14.6305 36.6298 13.2894 36.5907 11.9445 36.6016C10.5741 36.5913 9.20706 36.6303 7.84328 36.7188C7.59109 36.8409 7.42183 37.0362 7.33552 37.3047C7.29651 37.6945 7.2835 38.0851 7.29646 38.4766C7.55815 38.4637 7.81854 38.4767 8.07764 38.5156C8.49424 38.8802 8.49424 39.2448 8.07764 39.6094C7.56332 39.73 7.04253 39.756 6.51528 39.6875C6.39181 39.6323 6.27463 39.5672 6.16375 39.4922C6.07628 39.0709 6.03722 38.6412 6.04658 38.2031C5.92019 36.3112 6.80552 35.3608 8.70258 35.3516C8.92271 27.6166 9.15707 19.8822 9.40564 12.1484C8.18177 12.1484 6.95795 12.1484 5.73411 12.1484C5.69934 12.8829 5.33479 13.3646 4.64046 13.5938C3.54681 13.6459 2.45316 13.6459 1.35952 13.5938C0.862361 13.4474 0.497811 13.148 0.265869 12.6953C0.265869 10.9505 0.265869 9.2057 0.265869 7.46094C0.384547 7.26402 0.514743 7.06871 0.656457 6.875C0.82601 6.75108 1.00828 6.64691 1.20328 6.5625C2.37505 6.51041 3.54681 6.51041 4.71858 6.5625C5.33211 6.77274 5.67062 7.20243 5.73411 7.85156C7.03607 7.85156 8.338 7.85156 9.63999 7.85156C9.83114 5.42699 10.0525 3.00512 10.304 0.585938C10.377 0.382661 10.5202 0.265474 10.7336 0.234375C11.3065 0.182292 11.8794 0.182292 12.4522 0.234375C18.8406 2.73877 25.2202 5.26482 31.5911 7.8125C32.1119 7.83852 32.6326 7.86461 33.1534 7.89062C33.2315 7.92969 33.3096 7.96875 33.3878 8.00781C34.1931 9.0607 35.0133 10.1023 35.8485 11.1328C36.0506 11.5166 35.9854 11.8422 35.6532 12.1094C34.4296 12.1484 33.2057 12.1615 31.9816 12.1484C31.9686 14.3361 31.9816 16.5236 32.0207 18.7109C33.57 20.2604 35.1194 21.8099 36.6687 23.3594C38.5742 23.1167 39.3294 23.937 38.9341 25.8203C39.522 25.7887 39.9647 26.023 40.2621 26.5234ZM11.4367 1.44531C11.5408 1.44531 11.645 1.44531 11.7492 1.44531C11.9573 3.57813 12.1395 5.71355 12.296 7.85156C11.8273 7.85156 11.3586 7.85156 10.8899 7.85156C11.0909 5.71816 11.2732 3.58274 11.4367 1.44531ZM13.0772 1.83594C18.1011 3.82711 23.1266 5.8193 28.1539 7.8125C25.3937 7.83852 22.6335 7.86461 19.8734 7.89062C19.4314 8.03352 19.2881 8.33305 19.4438 8.78906C19.4828 8.93227 19.574 9.02344 19.7172 9.0625C24.0397 9.08852 28.3622 9.11461 32.6847 9.14062C33.1085 9.72766 33.5511 10.3005 34.0127 10.8594C24.5866 10.8984 15.1603 10.9115 5.73411 10.8984C5.73411 10.2995 5.73411 9.70055 5.73411 9.10156C9.7963 9.11461 13.8584 9.10156 17.9205 9.0625C18.0637 9.02344 18.1548 8.93227 18.1939 8.78906C18.3495 8.33305 18.2062 8.03352 17.7642 7.89062C16.3583 7.85156 14.9522 7.83852 13.5459 7.85156C13.4085 5.84492 13.2522 3.83972 13.0772 1.83594ZM1.59387 7.77344C2.55058 7.7483 3.501 7.77434 4.44516 7.85156C4.49725 9.30992 4.49725 10.7682 4.44516 12.2266C4.40611 12.2656 4.36705 12.3047 4.32799 12.3438C3.39766 12.4079 2.47326 12.3948 1.55481 12.3047C1.49077 10.7885 1.50379 9.27812 1.59387 7.77344ZM10.6555 12.1484C11.1249 12.1355 11.5936 12.1485 12.0616 12.1875C11.5704 12.8185 11.0887 13.4566 10.6165 14.1016C10.6207 13.4516 10.6337 12.8005 10.6555 12.1484ZM18.2329 12.1484C19.9515 12.1484 21.6701 12.1484 23.3887 12.1484C23.4017 13.1904 23.3887 14.2321 23.3496 15.2734C22.5222 15.3251 21.6889 15.3512 20.8499 15.3516C20.0108 15.3512 19.1775 15.3251 18.3501 15.2734C18.2373 14.2375 18.1982 13.1959 18.2329 12.1484ZM12.5303 13.6328C12.6757 14.7108 12.7148 15.8045 12.6475 16.9141C12.1036 16.5059 11.5698 16.0893 11.0461 15.6641C11.5428 14.9855 12.0375 14.3084 12.5303 13.6328ZM10.4993 16.9141C11.0608 17.312 11.6076 17.7287 12.1398 18.1641C11.595 18.9562 11.0352 19.7374 10.4602 20.5078C10.4351 19.3098 10.4482 18.1118 10.4993 16.9141ZM12.6866 19.5703C12.7483 19.657 12.7874 19.7611 12.8038 19.8828C12.8286 20.9381 12.8677 21.9928 12.9209 23.0469C12.8949 23.2422 12.8688 23.4375 12.8428 23.6328C12.1766 23.1359 11.4997 22.6541 10.8118 22.1875C11.447 21.3197 12.0719 20.4473 12.6866 19.5703ZM30.5755 20.4297C30.6533 21.4054 30.6793 22.395 30.6536 23.3984C29.6638 23.4115 28.6743 23.3984 27.6852 23.3594C28.6644 22.3931 29.6279 21.4166 30.5755 20.4297ZM31.9816 20.5078C32.9554 21.4426 33.9188 22.393 34.872 23.3594C33.9089 23.3984 32.9455 23.4115 31.9816 23.3984C31.9816 22.4349 31.9816 21.4713 31.9816 20.5078ZM10.343 23.4766C11.0498 23.9089 11.7268 24.3907 12.3741 24.9219C11.658 25.7943 10.942 26.6666 10.2259 27.5391C10.2185 26.1827 10.2575 24.8286 10.343 23.4766ZM24.7948 24.6484C29.0913 24.6484 33.3878 24.6484 37.6842 24.6484C37.6842 25.0391 37.6842 25.4297 37.6842 25.8203C33.3878 25.8203 29.0913 25.8203 24.7948 25.8203C24.7948 25.4297 24.7948 25.0391 24.7948 24.6484ZM12.9209 26.2109C13.0486 27.7601 13.1136 29.3226 13.1162 30.8984C12.289 30.2959 11.4688 29.684 10.6555 29.0625C11.4571 28.1442 12.2122 27.1938 12.9209 26.2109ZM10.1087 30.3516C10.8867 30.8455 11.6418 31.3794 12.3741 31.9531C11.5893 32.9369 10.795 33.9134 9.99152 34.8828C10.0124 33.373 10.0514 31.8627 10.1087 30.3516ZM13.1553 33.0078C13.2329 33.7749 13.2589 34.5562 13.2334 35.3516C12.5819 35.3645 11.9309 35.3516 11.2805 35.3125C11.9516 34.5768 12.5765 33.8085 13.1553 33.0078Z" fill="#F55B1F"/>
</g>
<defs>
<clipPath id="clip0_65_164">
<rect width="39.9844" height="40" fill="white" transform="translate(0.170654)"/>
</clipPath>
</defs>
</svg>
