<svg width="40" height="40" viewBox="0 0 40 40" fill="none" xmlns="http://www.w3.org/2000/svg">
<g clip-path="url(#clip0_65_167)">
<path opacity="0.941" fill-rule="evenodd" clip-rule="evenodd" d="M22.8043 -0.0390625C27.96 -0.0390625 33.1158 -0.0390625 38.2716 -0.0390625C39.2611 0.273438 39.912 0.924477 40.2245 1.91406C40.2245 2.33073 40.2245 2.7474 40.2245 3.16406C39.8346 4.3995 38.9882 5.07659 37.6857 5.19531C37.6597 14.7787 37.6336 24.362 37.6076 33.9453C36.9034 37.2406 34.9114 39.2459 31.6316 39.9609C30.9285 39.9609 30.2255 39.9609 29.5224 39.9609C26.1318 39.2652 24.1138 37.208 23.4683 33.7891C23.4423 32.3047 23.4162 30.8203 23.3902 29.3359C20.4691 30.0421 17.735 29.5995 15.1878 28.0078C14.8659 28.2514 14.5665 28.5248 14.2895 28.8281C14.4978 29.0365 14.7061 29.2448 14.9144 29.4531C11.4094 32.9454 7.92015 36.448 4.44663 39.9609C4.05604 39.9609 3.66545 39.9609 3.27486 39.9609C1.71251 39.4922 0.696977 38.4766 0.228271 36.9141C0.228271 36.5234 0.228271 36.1328 0.228271 35.7422C3.74086 32.2684 7.24314 28.7787 10.7351 25.2734C10.9434 25.4818 11.1517 25.6901 11.36 25.8984C11.6633 25.6214 11.9367 25.322 12.1803 25C10.3661 22.0219 10.0406 18.8838 11.2038 15.5859C11.2911 15.3238 11.4083 15.0764 11.5553 14.8438C10.8637 14.2431 10.1606 13.6572 9.44616 13.0859C8.07016 13.8498 6.85934 13.6415 5.81368 12.4609C5.17597 11.2843 5.25409 10.1645 6.04804 9.10156C7.33431 8.06141 8.62327 8.06141 9.91486 9.10156C11.6074 8.20312 13.2999 7.30469 14.9925 6.40625C14.9151 4.19198 15.9827 3.12427 18.1953 3.20312C19.5069 3.56004 20.1838 4.41941 20.2264 5.78125C20.2048 7.02719 19.6058 7.86055 18.4297 8.28125C17.382 8.55641 16.4836 8.30898 15.7346 7.53906C14.0478 8.49336 12.3422 9.41781 10.6179 10.3125C10.6176 10.9016 10.5525 11.4875 10.4226 12.0703C11.0216 12.5651 11.6204 13.0599 12.2193 13.5547C15.0425 9.77875 18.7792 8.34648 23.4292 9.25781C23.4423 7.90336 23.4292 6.54923 23.3902 5.19531C21.8092 5.00749 20.9629 4.12208 20.8513 2.53906C20.9192 1.2291 21.5702 0.369728 22.8043 -0.0390625ZM23.1949 1.28906C28.1164 1.27604 33.0378 1.28906 37.9591 1.32812C38.868 1.76338 39.0893 2.42745 38.6231 3.32031C38.435 3.5122 38.2137 3.65542 37.9591 3.75C33.0377 3.80209 28.1163 3.80209 23.1949 3.75C22.5917 3.5742 22.2532 3.17056 22.1793 2.53906C22.2618 1.90111 22.6003 1.48444 23.1949 1.28906ZM17.4923 4.49219C18.6858 4.6567 19.0895 5.30773 18.7031 6.44531C18 7.17448 17.297 7.17448 16.5939 6.44531C16.2214 5.47222 16.5208 4.82118 17.4923 4.49219ZM24.7572 5.19531C28.611 5.19531 32.4649 5.19531 36.3186 5.19531C36.3446 7.1231 36.3186 9.05016 36.2405 10.9766C33.3751 9.74195 30.7321 10.1066 28.3116 12.0703C27.2915 11.0902 26.1327 10.309 24.8353 9.72656C24.7572 8.21703 24.7312 6.70662 24.7572 5.19531ZM7.80569 9.64844C8.99792 9.81188 9.40147 10.463 9.01651 11.6016C8.31345 12.3307 7.61039 12.3307 6.90733 11.6016C6.53092 10.6359 6.83037 9.98484 7.80569 9.64844ZM19.7577 10.3516C23.7336 10.0934 26.7412 11.6559 28.7803 15.0391C30.4104 18.4513 30.1499 21.7065 27.9991 24.8047C25.0854 28.1539 21.531 29.0784 17.336 27.5781C13.8899 25.9003 12.0671 23.1399 11.8678 19.2969C12.0965 15.2435 14.0755 12.431 17.8047 10.8594C18.4561 10.651 19.1071 10.4818 19.7577 10.3516ZM32.6471 11.6016C33.845 11.5691 34.9646 11.8425 36.0062 12.4219C36.4389 12.7666 36.4128 13.0791 35.928 13.3594C34.5428 14.1164 33.0846 14.2987 31.5535 13.9062C30.7751 13.7123 30.0199 13.4519 29.288 13.125C30.2784 12.317 31.3981 11.8092 32.6471 11.6016ZM19.992 12.9297C21.177 12.8224 22.3228 12.9787 23.4292 13.3984C23.4552 17.3311 23.4292 21.2634 23.3511 25.1953C20.0805 26.3315 17.4375 25.4981 15.4222 22.6953C14.4513 21.0686 14.23 19.3498 14.7582 17.5391C15.6131 18.1597 16.4203 18.8368 17.1798 19.5703C16.6663 21.1334 17.135 22.2923 18.5859 23.0469C19.7913 23.436 20.8199 23.1626 21.6716 22.2266C22.4197 20.9755 22.3285 19.7906 21.3982 18.6719C20.6923 18.0852 19.8851 17.8769 18.9765 18.0469C18.6402 18.1174 18.3407 18.2607 18.0782 18.4766C17.3068 17.7831 16.5126 17.1191 15.6956 16.4844C15.5607 16.3759 15.4565 16.2456 15.3831 16.0938C16.442 14.3448 17.9783 13.2901 19.992 12.9297ZM24.7572 14.2578C27.1107 16.2493 27.8008 18.7233 26.8273 21.6797C26.385 22.7467 25.708 23.6322 24.7963 24.3359C24.7572 20.9766 24.7442 17.6173 24.7572 14.2578ZM36.2405 14.7266C36.3181 15.3633 36.3441 16.0143 36.3186 16.6797C35.0166 16.6797 33.7147 16.6797 32.4128 16.6797C32.4128 17.1484 32.4128 17.6172 32.4128 18.0859C33.7147 18.0859 35.0166 18.0859 36.3186 18.0859C36.3186 18.4766 36.3186 18.8672 36.3186 19.2578C34.6261 19.2578 32.9336 19.2578 31.241 19.2578C31.1947 17.763 30.8953 16.3308 30.3426 14.9609C32.3499 15.7402 34.3159 15.6621 36.2405 14.7266ZM19.3671 19.3359C20.3158 19.3862 20.7975 19.881 20.8123 20.8203C20.4706 21.7764 19.8326 22.0498 18.8984 21.6406C18.1981 20.9891 18.1721 20.312 18.8203 19.6094C19.0097 19.5146 19.192 19.4235 19.3671 19.3359ZM31.1629 20.6641C32.8815 20.6641 34.6 20.6641 36.3186 20.6641C36.3186 21.0547 36.3186 21.4453 36.3186 21.8359C35.0166 21.8359 33.7147 21.8359 32.4128 21.8359C32.4128 22.3047 32.4128 22.7734 32.4128 23.2422C33.7147 23.2422 35.0166 23.2422 36.3186 23.2422C36.3186 23.6328 36.3186 24.0234 36.3186 24.4141C34.6 24.4141 32.8815 24.4141 31.1629 24.4141C31.1629 24.8828 31.1629 25.3516 31.1629 25.8203C32.8815 25.8203 34.6 25.8203 36.3186 25.8203C36.3186 26.2109 36.3186 26.6016 36.3186 26.9922C35.0166 26.9922 33.7147 26.9922 32.4128 26.9922C32.4128 27.4609 32.4128 27.9297 32.4128 28.3984C33.7147 28.3984 35.0166 28.3984 36.3186 28.3984C36.3186 28.7891 36.3186 29.1797 36.3186 29.5703C34.6 29.5703 32.8815 29.5703 31.1629 29.5703C31.1629 30.0391 31.1629 30.5078 31.1629 30.9766C32.8815 30.9766 34.6 30.9766 36.3186 30.9766C36.5412 32.6813 36.2678 34.2959 35.4984 35.8203C33.7879 38.283 31.4835 39.1034 28.585 38.2812C26.3304 37.3543 25.0675 35.6746 24.7963 33.2422C24.7442 31.8099 24.7442 30.3776 24.7963 28.9453C28.3663 27.3002 30.4884 24.5398 31.1629 20.6641ZM13.0396 26.1328C13.3389 26.4923 13.6775 26.8179 14.0551 27.1094C13.8077 27.3568 13.5604 27.6041 13.313 27.8516C12.9875 27.526 12.662 27.2005 12.3365 26.875C12.5868 26.6378 12.8212 26.3904 13.0396 26.1328ZM10.696 27.2266C11.4614 27.953 12.2166 28.6952 12.9615 29.4531C12.5839 29.8307 12.2063 30.2084 11.8287 30.5859C11.0866 29.8438 10.3445 29.1016 9.60239 28.3594C9.98282 27.992 10.3474 27.6145 10.696 27.2266ZM8.58686 29.3359C9.35226 30.0623 10.1074 30.8045 10.8523 31.5625C8.50874 33.9062 6.16521 36.25 3.82168 38.5938C2.55878 38.3724 1.81666 37.6302 1.59533 36.3672C3.94158 34.0337 6.27209 31.69 8.58686 29.3359Z" fill="#F55B1F"/>
<path opacity="0.94" fill-rule="evenodd" clip-rule="evenodd" d="M20.2263 11.5235C24.2043 11.4733 26.8994 13.2962 28.3115 16.9922C29.258 20.952 28.0211 24.0119 24.6009 26.1719C22.3803 27.2459 20.1149 27.3501 17.8047 26.4844C14.427 24.821 12.8777 22.0997 13.1567 18.3203C13.734 15.0085 15.6219 12.834 18.8202 11.7969C19.2981 11.6959 19.7668 11.6047 20.2263 11.5235ZM19.992 12.9297C17.9783 13.2901 16.4419 14.3448 15.383 16.0938C15.4564 16.2457 15.5606 16.3759 15.6955 16.4844C16.5125 17.1191 17.3068 17.7832 18.0781 18.4766C18.3406 18.2607 18.6401 18.1175 18.9764 18.0469C19.885 17.8769 20.6922 18.0853 21.3981 18.6719C22.3285 19.7907 22.4196 20.9756 21.6715 22.2266C20.8198 23.1626 19.7912 23.436 18.5859 23.0469C17.1349 22.2923 16.6662 21.1334 17.1797 19.5703C16.4202 18.8368 15.613 18.1597 14.7581 17.5391C14.2299 19.3499 14.4512 21.0686 15.4221 22.6953C17.4374 25.4982 20.0804 26.3315 23.351 25.1953C23.4292 21.2634 23.4552 17.3311 23.4292 13.3985C22.3227 12.9787 21.1769 12.8225 19.992 12.9297ZM24.7572 14.2578C24.7441 17.6173 24.7572 20.9767 24.7962 24.336C25.7079 23.6322 26.385 22.7467 26.8273 21.6797C27.8007 18.7233 27.1107 16.2493 24.7572 14.2578ZM19.367 19.336C19.192 19.4235 19.0096 19.5146 18.8202 19.6094C18.1721 20.312 18.1981 20.9891 18.8983 21.6407C19.8325 22.0499 20.4705 21.7764 20.8122 20.8203C20.7974 19.881 20.3158 19.3862 19.367 19.336Z" fill="#F55B1F"/>
<path opacity="0.933" fill-rule="evenodd" clip-rule="evenodd" d="M26.0071 30.8984C26.4498 30.8984 26.8925 30.8984 27.3352 30.8984C27.3074 31.7876 27.3465 32.673 27.4524 33.5547C27.6287 34.2127 27.9543 34.7856 28.429 35.2734C28.173 35.6468 27.8736 35.9853 27.5305 36.2891C26.7298 35.5473 26.2351 34.6358 26.0462 33.5547C26.0071 32.6697 25.994 31.7842 26.0071 30.8984Z" fill="#F55B1F"/>
<path opacity="0.873" fill-rule="evenodd" clip-rule="evenodd" d="M29.4443 35.8984C29.8295 35.9881 30.2201 36.0402 30.6162 36.0547C30.6162 36.4974 30.6162 36.9401 30.6162 37.3828C30.0443 37.4329 29.4974 37.3418 28.9756 37.1094C29.1244 36.7017 29.2807 36.298 29.4443 35.8984Z" fill="#F55B1F"/>
<path opacity="0.873" fill-rule="evenodd" clip-rule="evenodd" d="M3.19672 36.0547C3.75162 35.9533 4.06412 36.1746 4.13422 36.7187C4.04114 37.3 3.7026 37.5083 3.1186 37.3437C2.81961 37.0853 2.72847 36.7598 2.84516 36.3672C2.95429 36.2445 3.07147 36.1403 3.19672 36.0547Z" fill="#F55B1F"/>
</g>
<defs>
<clipPath id="clip0_65_167">
<rect width="39.9844" height="40" fill="white" transform="translate(0.0136719)"/>
</clipPath>
</defs>
</svg>
