<svg width="36" height="33" viewBox="0 0 36 33" fill="none" xmlns="http://www.w3.org/2000/svg">
<path opacity="0.934" fill-rule="evenodd" clip-rule="evenodd" d="M6.99618 1.84964C14.3088 1.83914 21.6213 1.84964 28.9337 1.88112C29.0902 1.9584 29.1957 2.07384 29.2501 2.22744C29.2618 5.62782 29.297 9.028 29.3556 12.428C29.5447 12.5449 29.697 12.6918 29.8126 12.8688C31.3313 15.2323 32.8314 17.604 34.3126 19.984C34.4928 20.6542 34.2935 21.2104 33.7149 21.6526C32.7775 22.1353 31.8399 22.618 30.9024 23.1008C29.9449 23.3922 29.1715 23.1718 28.5821 22.4397C28.196 22.602 27.821 22.7804 27.4571 22.9749C27.8965 23.9144 27.6621 24.691 26.754 25.3046C27.1945 26.2663 26.9367 27.0429 25.9806 27.6344C25.6434 27.7624 25.2918 27.8148 24.9259 27.7918C24.7985 28.8084 24.1657 29.3541 23.0274 29.4289C22.9444 30.4479 22.335 31.0146 21.1993 31.129C20.9837 31.1223 20.7727 31.0908 20.5665 31.0346C19.9539 30.755 19.3563 30.4507 18.7735 30.1216C18.129 31.1447 17.2033 31.4281 15.9962 30.9716C15.6798 30.7722 15.4103 30.5308 15.1876 30.2475C14.2707 30.5302 13.4973 30.3413 12.8673 29.6808C12.7271 29.5348 12.6452 29.367 12.6212 29.1771C11.1618 29.255 10.3884 28.6463 10.3009 27.351C9.22087 27.213 8.63495 26.6567 8.54306 25.6824C8.59481 25.2934 8.70027 24.9261 8.85946 24.5805C8.27355 23.9299 7.68756 23.2792 7.10165 22.6286C6.77998 23.0351 6.33467 23.245 5.76571 23.2582C5.51512 23.2218 5.26903 23.1693 5.02743 23.1008C4.08993 22.618 3.15243 22.1353 2.21493 21.6526C1.46415 20.9764 1.35868 20.2313 1.89853 19.4173C3.30478 17.2344 4.71102 15.0516 6.11727 12.8688C6.23285 12.6918 6.38519 12.5449 6.57431 12.428C6.6329 9.028 6.66805 5.62782 6.67977 2.22744C6.74863 2.07206 6.8541 1.94613 6.99618 1.84964ZM7.83993 2.92007C14.5899 2.92007 21.3399 2.92007 28.0899 2.92007C28.1133 5.98472 28.0899 9.04909 28.0196 12.1132C26.8783 12.5822 25.7768 13.1174 24.7149 13.7188C24.2318 14.1143 24.0444 14.5971 24.1524 15.167C23.386 15.3811 22.6008 15.4965 21.797 15.5134C20.6964 15.4535 19.6065 15.3171 18.5274 15.1041C17.6099 14.97 16.7428 15.0959 15.9259 15.4819C15.5619 15.7242 15.1986 15.9655 14.836 16.206C13.8373 15.8974 12.8412 15.5826 11.8477 15.2615C11.911 14.6662 11.7001 14.152 11.2149 13.7188C10.1531 13.1174 9.05156 12.5822 7.91024 12.1132C7.83993 9.04909 7.81652 5.98472 7.83993 2.92007ZM7.48837 13.1836C7.78938 13.2236 8.07063 13.3181 8.33212 13.4669C9.08805 13.8526 9.82633 14.2618 10.547 14.6948C10.5918 14.7646 10.627 14.838 10.6524 14.9152C9.21011 17.278 7.72181 19.6183 6.18759 21.9359C6.0719 22.0721 5.91955 22.156 5.73056 22.1878C4.70034 21.7325 3.72768 21.2078 2.81259 20.6136C2.76571 20.4667 2.76571 20.3198 2.81259 20.1729C4.21884 17.99 5.62509 15.8072 7.03134 13.6244C7.15045 13.4444 7.30281 13.2975 7.48837 13.1836ZM28.1602 13.1836C28.5079 13.19 28.754 13.3369 28.8985 13.6244C30.3048 15.8072 31.711 17.99 33.1173 20.1729C33.1801 20.388 33.1449 20.5874 33.0118 20.771C32.0857 21.2592 31.1482 21.7315 30.1993 22.1878C30.0103 22.156 29.8579 22.0721 29.7423 21.9359C28.2081 19.6183 26.7198 17.278 25.2774 14.9152C25.3184 14.7578 25.4122 14.6319 25.5587 14.5374C26.4303 14.0845 27.2975 13.6332 28.1602 13.1836ZM17.2618 16.143C17.6609 16.1326 18.0594 16.1431 18.4571 16.1745C20.5215 16.6084 22.584 16.6294 24.6446 16.2375C25.7837 17.9609 26.9087 19.6924 28.0196 21.4322C27.504 21.6841 26.9883 21.9359 26.4727 22.1878C24.1405 20.965 21.7968 19.7582 19.4415 18.5672C18.7012 18.3648 17.9746 18.4068 17.2618 18.6932C16.8549 18.8439 16.4564 19.0118 16.0665 19.1969C15.6943 19.79 15.331 20.3882 14.9767 20.9914C14.6491 21.3323 14.2389 21.5107 13.7462 21.5266C13.7004 21.2799 13.677 21.0281 13.6759 20.771C13.6901 20.0405 13.7486 19.3164 13.8517 18.5987C14.6471 17.8296 15.5026 17.1264 16.4181 16.4893C16.698 16.3532 16.9792 16.2378 17.2618 16.143ZM11.2149 16.2689C12.1148 16.4991 13.0054 16.7614 13.8868 17.056C13.4767 17.4233 13.0665 17.7907 12.6563 18.1579C12.5181 19.3515 12.4712 20.5478 12.5157 21.747C12.7071 22.2957 13.129 22.5895 13.7813 22.6286C14.7244 22.5843 15.4743 22.2275 16.0313 21.5581C16.3477 21.0334 16.6642 20.5087 16.9806 19.984C17.4902 19.7409 18.0293 19.573 18.5977 19.4802C18.8476 19.5152 19.082 19.5886 19.3009 19.7006C21.5159 20.8709 23.7425 22.0253 25.9806 23.1638C26.582 23.506 26.6288 23.9048 26.1212 24.3601C26.0157 24.3916 25.9102 24.4231 25.8048 24.4546C24.8865 24.0277 23.9842 23.5765 23.0977 23.1008C22.5355 23.0377 22.2659 23.2581 22.2892 23.762C22.368 23.8957 22.4735 24.0111 22.6056 24.1083C23.6015 24.6066 24.5858 25.1208 25.5587 25.6509C25.8455 25.9867 25.822 26.3121 25.4884 26.6269C25.2869 26.7187 25.0759 26.7396 24.8556 26.6899C23.8123 26.1283 22.7576 25.5826 21.6915 25.0528C21.1691 24.9188 20.8644 25.0868 20.7774 25.5565C20.8357 25.6708 20.8944 25.7863 20.9532 25.9028C21.8029 26.362 22.6584 26.8132 23.5196 27.2566C23.8939 27.7938 23.7415 28.161 23.0626 28.3585C22.0748 27.9155 21.1022 27.4433 20.1446 26.9418C19.5317 26.882 19.2856 27.1234 19.4063 27.6659C19.439 27.756 19.4977 27.8294 19.5821 27.8863C20.3577 28.2457 21.0959 28.6549 21.797 29.1141C21.9272 29.6159 21.7162 29.9307 21.1642 30.0586C20.5429 29.8171 19.9452 29.5338 19.3712 29.2085C19.6711 28.0881 19.2024 27.3536 17.9649 27.0047C18.3283 25.693 17.7658 24.9269 16.2774 24.7064C16.1756 23.6313 15.5194 23.0646 14.3087 23.0064C14.0056 22.9919 13.7243 23.0548 13.4649 23.1953C12.7108 22.3023 11.7734 22.1029 10.6524 22.5971C10.2842 22.9371 9.95613 23.3044 9.66806 23.699C9.02758 23.0252 8.39477 22.343 7.76962 21.6526C8.92858 19.8597 10.0771 18.0652 11.2149 16.2689ZM11.5665 23.3842C12.1064 23.4166 12.3994 23.6684 12.4454 24.1398C11.9482 24.8989 11.374 25.602 10.7227 26.2491C10.0998 26.3206 9.78344 26.0792 9.77353 25.525C10.2657 24.8744 10.7579 24.2237 11.2501 23.5731C11.3662 23.5164 11.4717 23.4535 11.5665 23.3842ZM14.0977 24.0768C14.755 24.0464 15.0714 24.3192 15.047 24.8953C14.2346 25.9831 13.3791 27.0431 12.4806 28.0752C12.0749 28.1613 11.7585 28.0458 11.5313 27.7288C11.4844 27.5819 11.4844 27.435 11.5313 27.2881C12.3477 26.1902 13.2031 25.1198 14.0977 24.0768ZM15.9259 25.7769C16.6012 25.7354 16.9176 26.0083 16.8751 26.5954C16.2423 27.414 15.6095 28.2326 14.9767 29.0511C14.4466 29.4336 14.0247 29.3496 13.711 28.7993C13.6882 28.67 13.7117 28.5441 13.7813 28.4215C14.4805 27.5246 15.1953 26.643 15.9259 25.7769ZM17.3321 28.0437C18.144 28.0525 18.4135 28.3884 18.1407 29.0511C17.9064 29.345 17.6719 29.6388 17.4376 29.9327C17.0718 30.1898 16.7202 30.1688 16.3829 29.8697C16.3047 29.7507 16.2461 29.6248 16.2071 29.4919C16.497 28.9501 16.872 28.4674 17.3321 28.0437Z" fill="#F55B1F"/>
<path opacity="0.912" fill-rule="evenodd" clip-rule="evenodd" d="M13.043 4.93492C13.7857 4.8968 14.0318 5.19064 13.7813 5.81645C13.1837 6.35167 12.586 6.88688 11.9883 7.4221C11.7305 7.54803 11.4727 7.54803 11.2149 7.4221C10.8985 7.13875 10.5821 6.8554 10.2657 6.57205C10.0165 5.97758 10.2392 5.69424 10.9337 5.722C11.1549 5.86756 11.3658 6.02497 11.5665 6.19425C12.062 5.77138 12.5541 5.3516 13.043 4.93492Z" fill="#F55B1F"/>
<path opacity="0.933" fill-rule="evenodd" clip-rule="evenodd" d="M16.1368 5.75345C19.2307 5.74295 22.3244 5.75345 25.4181 5.78493C25.7864 5.99107 25.8684 6.27442 25.6642 6.63498C25.6007 6.71063 25.5187 6.76311 25.4181 6.79239C22.3478 6.83439 19.2775 6.83439 16.2072 6.79239C15.67 6.47503 15.6465 6.12872 16.1368 5.75345Z" fill="#F55B1F"/>
<path opacity="0.927" fill-rule="evenodd" clip-rule="evenodd" d="M13.1132 10.35C13.7604 10.3315 14.0065 10.6044 13.8515 11.1686C13.2069 11.7458 12.5624 12.3229 11.9179 12.9001C11.7069 12.9421 11.496 12.9421 11.2851 12.9001C10.9218 12.5748 10.5585 12.2495 10.1952 11.9242C10.042 11.3483 10.2881 11.086 10.9335 11.1371C11.1771 11.2922 11.3997 11.4706 11.6015 11.6723C12.098 11.2171 12.6019 10.7763 13.1132 10.35Z" fill="#F55B1F"/>
<path opacity="0.933" fill-rule="evenodd" clip-rule="evenodd" d="M16.2071 11.1058C19.2541 11.0952 22.3009 11.1058 25.3477 11.1372C25.6514 11.2079 25.792 11.3863 25.7696 11.6724C25.7851 11.8797 25.6913 12.0371 25.4883 12.1447C22.3712 12.1867 19.2539 12.1867 16.1368 12.1447C15.6547 11.7732 15.6781 11.4269 16.2071 11.1058Z" fill="#F55B1F"/>
</svg>
